<svg width="114" height="117" viewBox="0 0 114 117" fill="none" xmlns="http://www.w3.org/2000/svg">
<g clip-path="url(#clip0_291_2465)">
<path d="M72.5295 105.347C72.2688 105.472 72.011 105.593 71.7503 105.718C71.9507 105.985 72.1433 106.253 72.3436 106.52C71.0222 106.112 68.4002 107.268 66.9926 107.532C65.3054 107.845 63.6106 108.127 61.9112 108.372C59.8124 108.678 54.9821 110.179 53.1675 108.554C51.106 106.706 53.0627 102.601 53.5626 100.478C54.0329 98.4685 54.508 96.4623 54.9783 94.4533C55.2362 93.3571 55.4941 92.2608 55.7521 91.1646C55.8354 90.7999 55.9266 90.4332 56.01 90.0684C55.9774 88.7559 56.3251 88.6179 57.061 89.6525C57.6494 89.5092 58.2301 89.3678 58.8185 89.2245C58.702 89.3185 58.5777 89.4144 58.4612 89.5084C58.6338 88.9209 58.8095 88.3286 58.9821 87.7412C58.7195 87.555 58.4549 87.3611 58.1922 87.1749C59.4964 87.2428 60.2217 88.891 59.214 89.8212C58.4307 90.5451 57.8358 90.6449 56.8023 90.3922C56.1829 90.2396 55.6577 89.6827 55.5271 89.0624C55.4942 88.9105 55.4632 88.7663 55.4303 88.6144C55.2977 88.0193 55.4454 87.2452 55.9513 86.8472C57.8301 85.385 60.1963 86.3957 60.0382 88.8783C59.9034 91.0189 58.9442 93.3439 58.4367 95.4358C57.8608 97.8028 57.2772 100.172 56.7014 102.539C56.4447 103.589 55.9748 104.741 55.8958 105.814C55.8713 106.505 55.7164 106.543 55.4323 105.915C56.1214 105.899 56.8086 105.875 57.494 105.843C59.5518 105.756 61.6099 105.637 63.6645 105.468C65.9684 105.28 68.265 105.029 70.5581 104.729C71.6035 104.593 72.4188 104.337 73.1713 105.171C73.4122 105.436 73.462 105.842 73.2716 106.155C73.011 106.583 72.7727 106.682 72.2796 106.712C71.9567 106.734 71.7187 106.463 71.6228 106.187C71.6067 106.138 71.5906 106.089 71.5715 106.044C71.4006 105.544 72.0948 105.01 72.5247 105.345L72.5295 105.347Z" fill="#242A48"/>
<path d="M53.6129 106.641C58.4394 102.263 61.8138 97.0412 64.0205 90.9308C64.6112 89.2984 67.2015 90.0167 66.629 91.6734C64.3873 98.1449 60.246 103.771 54.8467 107.952C53.9496 108.647 52.7355 107.433 53.6129 106.641Z" fill="#242A48"/>
<path d="M67.7274 83.4808C68.5116 80.7063 69.1443 77.8991 69.5337 75.0362C69.8583 72.6813 69.6903 70.1059 70.4433 67.8598C70.7799 66.8511 72.4079 66.7334 72.627 67.9021C73.0752 70.2985 72.3561 73.0202 71.8316 75.3788C71.1828 78.2884 70.2997 81.1279 69.2516 83.9133C68.898 84.8524 67.4479 84.4715 67.7274 83.4808Z" fill="#242A48"/>
<path d="M71.9328 60.8124C72.6523 54.523 72.2878 48.5304 71.1524 42.3195C70.855 40.6942 73.3114 40.0714 73.6609 41.7085C75.0043 48.0328 74.7808 54.7427 73.3588 61.027C73.179 61.8212 71.8389 61.6391 71.9328 60.8124Z" fill="#242A48"/>
<path d="M68.7586 34.0193C67.5655 32.3702 66.7422 30.4711 65.7868 28.6698C65.0521 27.2864 63.995 24.2427 62.4286 23.7712C61.6318 23.5306 61.2519 22.5938 61.6834 21.8736C61.7362 21.787 61.7918 21.6955 61.8445 21.6088C62.2193 20.9927 62.894 20.8161 63.559 20.937C65.6112 21.3148 66.3762 24.0687 67.093 25.6985C68.175 28.1374 69.4537 30.7949 69.7834 33.4621C69.847 33.9756 69.1524 34.5754 68.7509 34.0211L68.7586 34.0193Z" fill="#242A48"/>
<path d="M57.2875 13.804C55.3479 12.0702 53.4036 10.3334 51.4699 8.58995C49.9456 7.21426 47.9922 4.58163 46.0915 3.93323C45.187 3.62043 44.8467 2.69452 45.2798 1.8632C45.3365 1.75918 45.3854 1.65705 45.4421 1.55303C45.7922 0.869046 46.6516 0.659743 47.3397 0.807917C49.4417 1.25557 51.0683 3.9268 52.4276 5.40006C54.5666 7.71686 56.69 10.0374 58.8183 12.3609C59.7456 13.3735 58.2832 14.6933 57.2875 13.804Z" fill="#242A48"/>
</g>
<defs>
<clipPath id="clip0_291_2465">
<rect width="78.1469" height="89.2415" fill="white" transform="matrix(-0.854346 -0.519705 -0.519705 0.854346 113.145 40.6133)"/>
</clipPath>
</defs>
</svg>
