<svg width="36" height="36" viewBox="0 0 36 36" fill="none" xmlns="http://www.w3.org/2000/svg">
<path d="M33.9356 25.9581V30.7754C33.9374 31.2226 33.8458 31.6653 33.6667 32.0751C33.4875 32.4848 33.2247 32.8526 32.8952 33.155C32.5657 33.4573 32.1766 33.6875 31.753 33.8307C31.3293 33.974 30.8804 34.0272 30.435 33.987C25.4938 33.4501 20.7475 31.7616 16.5773 29.0573C12.6975 26.5919 9.40811 23.3025 6.94273 19.4227C4.22895 15.2336 2.54011 10.4641 2.01303 5.50072C1.97291 5.05667 2.02568 4.60914 2.16799 4.1866C2.3103 3.76407 2.53903 3.3758 2.83963 3.04651C3.14022 2.71721 3.50608 2.45412 3.91392 2.27397C4.32176 2.09383 4.76265 2.00058 5.2085 2.00016H10.0258C10.8051 1.99249 11.5606 2.26844 12.1514 2.77659C12.7423 3.28475 13.1283 3.99041 13.2373 4.76207C13.4406 6.30371 13.8177 7.8174 14.3614 9.27426C14.5774 9.84901 14.6242 10.4736 14.4961 11.0741C14.368 11.6746 14.0705 12.2258 13.6388 12.6624L11.5994 14.7017C13.8853 18.7218 17.2139 22.0504 21.234 24.3363L23.2733 22.297C23.7099 21.8653 24.2611 21.5677 24.8616 21.4397C25.4621 21.3116 26.0868 21.3584 26.6615 21.5744C28.1184 22.118 29.6321 22.4951 31.1737 22.6984C31.9537 22.8085 32.6661 23.2014 33.1753 23.8024C33.6846 24.4034 33.9552 25.1706 33.9356 25.9581Z" stroke="white" stroke-width="3" stroke-linecap="round" stroke-linejoin="round"/>
</svg>
