<svg width="18" height="14" viewBox="0 0 18 14" fill="none" xmlns="http://www.w3.org/2000/svg">
<g clip-path="url(#clip0_147_2358)">
<path d="M0 7.30434C0.189024 6.63285 0.719413 6.22485 1.20924 5.80733C1.7461 5.35001 2.50565 5.43092 3.02438 5.94579C4.03898 6.95302 5.04582 7.9676 6.05481 8.98003C6.11048 9.03584 6.15709 9.10074 6.22355 9.18078C6.30512 9.1029 6.3664 9.04709 6.42466 8.98868C9.25095 6.15692 12.079 3.32646 14.9014 0.489948C15.3109 0.0780558 15.7783 -0.0984693 16.3441 0.0533942C16.8926 0.200499 17.833 1.17961 17.9594 1.71481C18.0621 2.14963 17.9668 2.54032 17.6975 2.89034C17.6366 2.96952 17.565 3.04177 17.4942 3.11273C13.9938 6.62203 10.4926 10.13 6.99302 13.6402C6.78242 13.8513 6.55326 14.0019 6.24081 13.9993C5.98187 13.9971 5.76437 13.9046 5.58441 13.7246C3.85859 11.9965 2.12932 10.2715 0.416025 8.53093C0.229591 8.34229 0.136373 8.06106 0 7.82223C0 7.6496 0 7.47697 0 7.30434Z" fill="white"/>
</g>
<defs>
<clipPath id="clip0_147_2358">
<rect width="18" height="14" fill="white"/>
</clipPath>
</defs>
</svg>
