<svg width="19" height="19" viewBox="0 0 19 19" fill="none" xmlns="http://www.w3.org/2000/svg">
<path d="M13.867 1H5.289C2.92025 1 1 2.92025 1 5.289V13.867C1 16.2358 2.92025 18.156 5.289 18.156H13.867C16.2358 18.156 18.156 16.2358 18.156 13.867V5.289C18.156 2.92025 16.2358 1 13.867 1Z" stroke="#FF9254" stroke-width="1.5" stroke-linecap="round" stroke-linejoin="round"/>
<path d="M13.0089 9.03752C13.1148 9.75143 12.9928 10.4805 12.6604 11.1211C12.328 11.7617 11.8021 12.2812 11.1574 12.6057C10.5128 12.9302 9.78223 13.0431 9.06968 12.9284C8.35714 12.8138 7.6989 12.4774 7.18857 11.9671C6.67825 11.4567 6.34183 10.7985 6.22718 10.0859C6.11252 9.3734 6.22546 8.64285 6.54993 7.99819C6.8744 7.35354 7.39389 6.82761 8.03449 6.49521C8.67509 6.16281 9.4042 6.04087 10.1181 6.14674C10.8463 6.25472 11.5205 6.59405 12.041 7.1146C12.5616 7.63515 12.9009 8.30932 13.0089 9.03752Z" stroke="#FF9254" stroke-width="1.5" stroke-linecap="round" stroke-linejoin="round"/>
<path d="M14.2969 4.86011H14.3054" stroke="#FF9254" stroke-width="1.5" stroke-linecap="round" stroke-linejoin="round"/>
</svg>
