<svg width="33" height="39" viewBox="0 0 33 39" fill="none" xmlns="http://www.w3.org/2000/svg">
<path d="M31 16.5C31 27.7778 16.5 37.4444 16.5 37.4444C16.5 37.4444 2 27.7778 2 16.5C2 12.6544 3.52767 8.96623 6.24695 6.24695C8.96623 3.52767 12.6544 2 16.5 2C20.3456 2 24.0338 3.52767 26.753 6.24695C29.4723 8.96623 31 12.6544 31 16.5Z" stroke="white" stroke-width="3" stroke-linecap="round" stroke-linejoin="round"/>
<path d="M16.5013 21.3332C19.1707 21.3332 21.3346 19.1692 21.3346 16.4998C21.3346 13.8305 19.1707 11.6665 16.5013 11.6665C13.8319 11.6665 11.668 13.8305 11.668 16.4998C11.668 19.1692 13.8319 21.3332 16.5013 21.3332Z" stroke="white" stroke-width="3" stroke-linecap="round" stroke-linejoin="round"/>
</svg>
