<svg width="174" height="45" viewBox="0 0 174 45" fill="none" xmlns="http://www.w3.org/2000/svg">
<g clip-path="url(#clip0_347_4801)">
<path d="M16.3031 23.5907H8.03473C7.90379 23.5907 7.77284 23.5907 7.64189 23.6184C6.96845 23.738 6.46337 24.2811 6.40725 24.953C6.35113 25.6249 6.78139 26.26 7.42677 26.4625C7.64189 26.5269 7.85702 26.5361 8.05344 26.5361H15.3677C15.508 26.5361 15.639 26.5361 15.7793 26.5361C16.0225 26.5361 16.2563 26.5361 16.4995 26.5269C16.9578 26.5085 17.3694 26.2968 17.6406 25.9379C17.9119 25.5789 17.996 25.1187 17.8838 24.6769C17.7061 23.9957 17.0981 23.5815 16.3031 23.5815V23.5907Z" fill="#242A48"/>
<path d="M12.8596 28.8647H7.95849C7.50018 28.8647 7.08863 29.0212 6.79868 29.3158C6.52743 29.5919 6.37778 29.9601 6.38713 30.3558C6.39649 31.2026 7.06057 31.8101 7.95849 31.8101H9.65144H10.3997H11.1386H12.8596C13.3179 31.8101 13.7295 31.6537 14.0194 31.3591C14.2907 31.083 14.4403 30.7148 14.4403 30.319C14.4403 29.4906 13.7576 28.8647 12.869 28.8647H12.8596Z" fill="#242A48"/>
<path d="M12.9528 34.1484C12.3448 34.1484 11.7368 34.1484 11.1382 34.1484H10.418H9.66974C9.09918 34.1484 8.52863 34.1484 7.95808 34.1484C7.05081 34.1484 6.39607 34.7651 6.38672 35.6119C6.38672 36.0077 6.53637 36.3759 6.80762 36.652C7.09757 36.9374 7.49976 37.0938 7.93937 37.103C8.65022 37.103 9.37043 37.103 10.0813 37.103C11.0166 37.103 11.952 37.103 12.8873 37.103C13.1492 37.103 13.4204 37.0294 13.6636 36.9097C14.2529 36.606 14.5615 35.9157 14.3932 35.2714C14.2248 34.6179 13.6449 34.1668 12.9528 34.1668V34.1484Z" fill="#242A48"/>
<path d="M25.9368 25.6984C25.9368 24.916 25.9368 24.1336 25.9368 23.3513C25.9368 22.753 25.7123 22.2283 25.2446 21.8142C23.1308 19.8904 21.0076 17.9667 18.9031 16.0338C18.4728 15.638 17.949 15.4355 17.3504 15.4355H2.03903C0.804386 15.4355 0 16.2179 0 17.4145V42.9933C0 43.6008 0.205773 45.0091 2.15127 45.0091H23.2524H23.6452H23.9352C25.1511 44.9815 25.9368 44.2267 25.9368 43.0762C25.9368 42.7448 25.9368 40.1768 25.9368 37.1118V27.1803V25.6984ZM22.0739 25.2198L22.0552 41.3365H3.87228V19.0897H6.10772C9.63393 19.0897 13.1601 19.0897 16.7238 19.0989L18.9873 21.1606C20.0255 22.1087 21.0637 23.0567 22.0832 23.9588C22.0832 24.373 22.0832 24.7964 22.0832 25.2106L22.0739 25.2198Z" fill="#242A48"/>
<path d="M34.5972 37.2961V41.6038C34.5972 42.6439 34.3447 43.4354 33.849 43.9509C33.3532 44.4663 32.7172 44.7332 31.9502 44.7332C31.1833 44.7332 30.5753 44.4663 30.0889 43.9417C29.6026 43.417 29.3594 42.6347 29.3594 41.6038V27.2542C29.3594 24.9347 30.2105 23.7842 31.9128 23.7842C32.7827 23.7842 33.4094 24.0511 33.7929 24.5942C34.1763 25.1372 34.3915 25.938 34.4289 26.9873C35.0556 25.9288 35.7009 25.128 36.3557 24.5942C37.0104 24.0603 37.8896 23.7842 38.9933 23.7842C40.097 23.7842 41.1633 24.0511 42.1921 24.5942C43.221 25.1372 43.7448 25.8552 43.7448 26.748C43.7448 27.3739 43.5203 27.8985 43.0807 28.3035C42.6411 28.7085 42.1641 28.9202 41.6497 28.9202C41.4532 28.9202 40.9949 28.8005 40.256 28.5704C39.5171 28.3403 38.8717 28.2207 38.3105 28.2207C37.5435 28.2207 36.9169 28.4232 36.4305 28.819C35.9441 29.2147 35.57 29.8038 35.2987 30.5862C35.0275 31.3686 34.8404 32.2982 34.7469 33.3751C34.6534 34.452 34.5972 35.759 34.5972 37.3146V37.2961Z" fill="#242A48"/>
<path d="M57.9253 41.8243C56.6626 42.7908 55.4373 43.5179 54.2495 44.0057C53.0616 44.4936 51.7428 44.7329 50.2649 44.7329C48.9181 44.7329 47.7395 44.4752 46.7294 43.9505C45.7192 43.4259 44.9335 42.7171 44.3817 41.8243C43.8298 40.9315 43.5586 39.965 43.5586 38.9157C43.5586 37.5075 44.0169 36.3017 44.9242 35.3076C45.8315 34.3136 47.0754 33.6509 48.6655 33.3103C49.0022 33.2367 49.8253 33.0618 51.1441 32.8041C52.463 32.5463 53.5854 32.2978 54.5301 32.0769C55.4747 31.856 56.4943 31.5891 57.5886 31.2761C57.5231 29.9139 57.2425 28.9198 56.7561 28.2847C56.2698 27.6496 55.2409 27.3275 53.6976 27.3275C52.3694 27.3275 51.3686 27.5116 50.6952 27.8705C50.0217 28.2295 49.4512 28.7818 48.9648 29.5089C48.4784 30.2361 48.1417 30.7239 47.9453 30.954C47.7489 31.1841 47.3186 31.3038 46.6733 31.3038C46.084 31.3038 45.5789 31.1197 45.1487 30.7515C44.7184 30.3833 44.5033 29.9047 44.5033 29.3248C44.5033 28.4228 44.8306 27.5392 45.4854 26.6832C46.1401 25.8272 47.1503 25.1184 48.5346 24.5662C49.9189 24.0139 51.6399 23.7378 53.6976 23.7378C55.9985 23.7378 57.8131 24.0047 59.1225 24.5386C60.432 25.0724 61.3673 25.9192 61.9098 27.079C62.4523 28.2387 62.7236 29.7758 62.7236 31.6811C62.7236 32.8869 62.7236 33.9178 62.7142 34.7554C62.7049 35.593 62.6955 36.5318 62.6862 37.5719C62.6862 38.5384 62.8452 39.5508 63.1725 40.6001C63.4999 41.6494 63.6589 42.3306 63.6589 42.6251C63.6589 43.1497 63.4064 43.6376 62.9013 44.0702C62.3962 44.5028 61.8257 44.7237 61.1803 44.7237C60.6471 44.7237 60.114 44.4752 59.5902 43.9781C59.0664 43.4811 58.5052 42.7632 57.9253 41.8151V41.8243ZM57.5792 34.3688C56.8123 34.6449 55.6992 34.9395 54.2307 35.2432C52.7623 35.547 51.7521 35.7771 51.1909 35.9243C50.6297 36.0716 50.0872 36.3477 49.5821 36.7711C49.0771 37.1945 48.8152 37.7836 48.8152 38.5384C48.8152 39.2931 49.1145 39.9834 49.7131 40.5265C50.3117 41.0696 51.0974 41.3457 52.0701 41.3457C53.1083 41.3457 54.0624 41.1248 54.9416 40.6738C55.8208 40.2228 56.4568 39.6521 56.8684 38.9434C57.3454 38.161 57.5792 36.8816 57.5792 35.0959V34.3596V34.3688Z" fill="#242A48"/>
<path d="M66.6791 24.2349H67.9231V22.6886C67.9231 21.0778 68.1288 19.7984 68.5497 18.8504C68.9706 17.9023 69.6721 17.212 70.6636 16.7702C71.655 16.3284 73.0113 16.1167 74.7416 16.1167C77.8002 16.1167 79.3248 16.853 79.3248 18.3257C79.3248 18.8044 79.1658 19.2094 78.8477 19.5499C78.5297 19.8905 78.1462 20.0562 77.716 20.0562C77.5102 20.0562 77.1641 20.0193 76.6591 19.9457C76.154 19.8721 75.7424 19.8353 75.3964 19.8353C74.4517 19.8353 73.8437 20.1114 73.5725 20.6544C73.3012 21.1975 73.1703 21.9891 73.1703 23.0015V24.2257H74.4517C76.4439 24.2257 77.4447 24.8148 77.4447 26.0022C77.4447 26.849 77.1828 27.3828 76.6497 27.6037C76.1166 27.8246 75.387 27.9443 74.4517 27.9443H73.1703V41.5943C73.1703 42.616 72.9271 43.3891 72.4314 43.923C71.9356 44.4569 71.2996 44.7238 70.5233 44.7238C69.747 44.7238 69.167 44.4569 68.6713 43.923C68.1756 43.3891 67.9324 42.6068 67.9324 41.5943V27.9443H66.492C65.7157 27.9443 65.1077 27.7694 64.6868 27.4288C64.2659 27.0883 64.0508 26.6281 64.0508 26.0758C64.0508 24.8424 64.93 24.2257 66.6791 24.2257V24.2349Z" fill="#242A48"/>
<path d="M80.4654 24.2349H81.0453V21.1422C81.0453 20.3138 81.064 19.6603 81.1108 19.1909C81.1575 18.7215 81.2791 18.3165 81.4849 17.9759C81.6907 17.6262 81.9806 17.3408 82.3641 17.1199C82.7476 16.899 83.1778 16.7886 83.6455 16.7886C84.3096 16.7886 84.9082 17.0371 85.4507 17.5249C85.8061 17.8563 86.04 18.2521 86.1335 18.7215C86.227 19.1909 86.2738 19.8628 86.2738 20.728V24.2349H88.1912C88.9301 24.2349 89.5007 24.4098 89.8842 24.7503C90.2677 25.0909 90.4734 25.5419 90.4734 26.085C90.4734 26.7753 90.1928 27.2631 89.641 27.5392C89.0891 27.8154 88.2848 27.9534 87.2559 27.9534H86.2738V37.4247C86.2738 38.2347 86.3019 38.8514 86.358 39.284C86.4141 39.7166 86.5731 40.0663 86.8163 40.3425C87.0595 40.6186 87.471 40.7475 88.0322 40.7475C88.3409 40.7475 88.7524 40.6922 89.2762 40.591C89.8 40.4897 90.2115 40.4345 90.5015 40.4345C90.9224 40.4345 91.3059 40.6002 91.6426 40.9315C91.9793 41.2629 92.1477 41.6771 92.1477 42.1649C92.1477 42.9933 91.6894 43.6284 90.7634 44.0702C89.8374 44.512 88.5186 44.7329 86.7882 44.7329C85.1514 44.7329 83.9074 44.466 83.0656 43.923C82.2238 43.3799 81.672 42.6343 81.4101 41.6771C81.1482 40.7198 81.0172 39.4404 81.0172 37.8481V27.9534H80.3251C79.5675 27.9534 78.9969 27.7786 78.5947 27.4288C78.1925 27.079 77.9961 26.628 77.9961 26.085C77.9961 25.5419 78.2019 25.1001 78.6228 24.7503C79.0437 24.4006 79.6423 24.2349 80.4373 24.2349H80.4654Z" fill="#242A48"/>
<path d="M101.074 31.3778L103.131 38.3547L107.537 24.0695C107.873 23.0847 108.117 22.4036 108.285 22.0262C108.453 21.6488 108.725 21.299 109.108 20.9861C109.492 20.6731 110.015 20.5259 110.679 20.5259C111.166 20.5259 111.615 20.6455 112.036 20.8848C112.457 21.1242 112.775 21.4463 113.018 21.8421C113.261 22.2379 113.373 22.6337 113.373 23.0387C113.373 23.3148 113.336 23.6185 113.261 23.9315C113.186 24.2444 113.093 24.5666 112.971 24.8795C112.849 25.1925 112.737 25.5054 112.625 25.8368L107.799 39.5236C107.555 40.214 107.312 40.8767 107.069 41.4934C106.826 42.1101 106.545 42.6623 106.227 43.1317C105.909 43.6012 105.479 43.9877 104.955 44.2915C104.431 44.5952 103.777 44.7425 103.01 44.7425C102.243 44.7425 101.597 44.5952 101.064 44.3007C100.531 44.0061 100.101 43.6104 99.7827 43.1317C99.4647 42.6531 99.1748 42.1008 98.9316 41.4842C98.6884 40.8675 98.4452 40.214 98.202 39.5236L95.8169 33.1726C95.7047 32.8413 95.5831 32.5283 95.4615 32.2062C95.3399 31.884 95.237 31.5527 95.1528 31.1845C95.0687 30.8163 95.0312 30.5126 95.0312 30.2641C95.0312 29.6198 95.2931 29.0399 95.8169 28.506C96.3407 27.9722 96.9955 27.7145 97.7905 27.7145C98.7632 27.7145 99.446 28.009 99.8482 28.5889C100.25 29.1688 100.662 30.1076 101.083 31.387L101.074 31.3778Z" fill="#FF9254"/>
<path d="M120.238 26.7112V41.6038C120.238 42.6347 119.985 43.417 119.49 43.9417C118.994 44.4663 118.358 44.7332 117.591 44.7332C116.824 44.7332 116.197 44.4663 115.72 43.9233C115.243 43.3802 115 42.607 115 41.6038V26.8584C115 25.8367 115.243 25.0728 115.72 24.5573C116.197 24.0419 116.824 23.7842 117.591 23.7842C118.358 23.7842 118.994 24.0419 119.49 24.5573C119.985 25.0728 120.238 25.7907 120.238 26.7112Z" fill="#FF9254"/>
<path d="M138.394 35.5197H128.152C128.161 36.6886 128.404 37.7195 128.872 38.6123C129.34 39.5052 129.957 40.1771 130.733 40.6281C131.51 41.0791 132.361 41.3092 133.296 41.3092C133.923 41.3092 134.493 41.2356 135.017 41.0883C135.541 40.941 136.037 40.7201 136.523 40.4072C137.009 40.0942 137.458 39.7721 137.87 39.4131C138.281 39.0542 138.805 38.5847 139.46 37.9772C139.731 37.7471 140.115 37.6367 140.61 37.6367C141.143 37.6367 141.583 37.784 141.91 38.0693C142.238 38.3546 142.406 38.7688 142.406 39.2935C142.406 39.7629 142.219 40.3059 141.854 40.9226C141.49 41.5393 140.928 42.1468 140.18 42.7175C139.432 43.2881 138.496 43.7668 137.365 44.1441C136.233 44.5215 134.933 44.7148 133.464 44.7148C130.097 44.7148 127.488 43.7668 125.617 41.8799C123.746 39.993 122.82 37.4342 122.82 34.1943C122.82 32.6755 123.054 31.2581 123.512 29.9603C123.971 28.6625 124.644 27.5395 125.523 26.6099C126.403 25.6802 127.497 24.9623 128.788 24.4653C130.079 23.9682 131.51 23.7197 133.081 23.7197C135.129 23.7197 136.878 24.1431 138.347 24.9899C139.815 25.8367 140.91 26.9412 141.639 28.2851C142.369 29.6289 142.734 31.0004 142.734 32.3994C142.734 33.6972 142.359 34.5348 141.602 34.9214C140.844 35.308 139.787 35.4921 138.422 35.4921L138.394 35.5197ZM128.152 32.5927H137.645C137.514 30.8347 137.037 29.5093 136.196 28.6348C135.354 27.7604 134.259 27.3186 132.885 27.3186C131.51 27.3186 130.509 27.7604 129.667 28.6532C128.825 29.5461 128.32 30.8531 128.142 32.5927H128.152Z" fill="#FF9254"/>
<path d="M148.924 26.9871L152.338 38.5017L155.443 27.7971C155.78 26.6741 156.023 25.9102 156.182 25.5052C156.341 25.1002 156.641 24.7044 157.08 24.3362C157.52 23.968 158.128 23.7748 158.895 23.7748C159.662 23.7748 160.288 23.9588 160.728 24.3362C161.168 24.7136 161.476 25.1094 161.654 25.542C161.832 25.9746 162.084 26.7293 162.402 27.7971L165.508 38.5017L168.959 26.9871C169.193 26.1587 169.371 25.5604 169.511 25.183C169.651 24.8056 169.885 24.4835 170.222 24.1982C170.558 23.9128 171.035 23.7748 171.662 23.7748C172.289 23.7748 172.831 23.9865 173.29 24.4191C173.748 24.8517 173.982 25.3487 173.982 25.9286C173.982 26.4532 173.785 27.254 173.383 28.3217L169.109 40.6647C168.735 41.7048 168.454 42.4688 168.248 42.929C168.042 43.3892 167.724 43.8126 167.275 44.1716C166.826 44.5305 166.228 44.7146 165.461 44.7146C164.694 44.7146 164.048 44.5213 163.59 44.1255C163.132 43.7298 162.804 43.2603 162.58 42.6897C162.356 42.119 162.122 41.3827 161.869 40.4806L158.876 30.4387L155.977 40.4806C155.593 41.8797 155.182 42.929 154.733 43.6469C154.284 44.3649 153.498 44.7146 152.376 44.7146C151.796 44.7146 151.309 44.6042 150.907 44.3833C150.505 44.1624 150.168 43.8494 149.897 43.4352C149.626 43.021 149.392 42.5424 149.186 41.9809C148.98 41.4195 148.821 40.9777 148.709 40.6463L144.472 28.3033C144.051 27.1435 143.836 26.3428 143.836 25.9102C143.836 25.3579 144.06 24.8609 144.509 24.4191C144.958 23.9773 145.51 23.7563 146.156 23.7563C147.025 23.7563 147.615 23.9957 147.923 24.4835C148.232 24.9713 148.559 25.7905 148.905 26.9687L148.924 26.9871Z" fill="#FF9254"/>
<path d="M117.616 13.208H117.607C115.296 13.208 113.416 15.0765 113.426 17.35C113.426 19.6234 115.315 21.4735 117.625 21.4735C119.936 21.4735 121.816 19.6142 121.816 17.3408C121.816 16.227 121.376 15.1961 120.581 14.4138C119.786 13.6406 118.739 13.208 117.616 13.208ZM118.869 17.3223C118.869 17.6537 118.739 17.9759 118.505 18.206C118.271 18.4361 117.962 18.5649 117.616 18.5649C117.289 18.5649 116.971 18.4361 116.737 18.206C116.503 17.9759 116.372 17.6629 116.363 17.3408C116.363 16.6596 116.915 16.1074 117.607 16.0982C118.29 16.0982 118.86 16.6412 118.86 17.3131L118.869 17.3223Z" fill="#FF9254"/>
<path d="M127.056 13.1435C125.849 11.0357 124.184 9.40658 122.126 8.31127C119.713 7.04107 117.188 6.82016 114.634 7.66696C112.867 8.25604 111.267 9.30533 109.883 10.7964C109.172 11.5604 108.573 12.398 108.115 13.2816C107.9 13.6958 107.881 14.1744 108.078 14.5886C108.274 14.9936 108.639 15.2789 109.097 15.3894C109.2 15.417 109.312 15.4262 109.415 15.4262C109.967 15.4262 110.463 15.1133 110.753 14.5794C111.623 12.9963 112.857 11.7629 114.419 10.9253C115.972 10.0877 117.562 9.8668 119.161 10.2718C120.405 10.5847 121.547 11.229 122.641 12.2415C123.427 12.9687 124.063 13.7786 124.53 14.6438C124.82 15.1869 125.344 15.4722 125.961 15.4262C126.569 15.3802 127.018 15.0304 127.261 14.3585L127.318 13.8155L127.196 13.4289C127.149 13.3368 127.112 13.2448 127.056 13.1527V13.1435Z" fill="#FF9254"/>
<path d="M108.825 7.78708L109.133 7.92515L109.358 7.89753C109.947 7.8239 110.415 7.48334 110.63 6.9771C110.873 6.39723 110.742 5.77133 110.265 5.34793C109.741 4.87851 109.218 4.40909 108.694 3.94887C108.077 3.41502 107.16 3.47025 106.617 4.07773C106.084 4.67601 106.131 5.55963 106.72 6.10269C107.244 6.57211 107.768 7.04153 108.301 7.50175C108.479 7.65822 108.675 7.73185 108.806 7.78708H108.825Z" fill="#FF9254"/>
<path d="M128.606 4.07762C128.063 3.47934 127.175 3.41491 126.576 3.92115C126.015 4.39978 125.463 4.89681 124.911 5.39384C124.462 5.80804 124.341 6.46155 124.612 7.02301C124.865 7.55686 125.351 7.8422 126.006 7.86061H126.043L126.333 7.80538C126.455 7.76856 126.679 7.70413 126.876 7.52925C127.437 7.05062 127.998 6.56279 128.54 6.05656C129.092 5.54111 129.12 4.64829 128.597 4.07762H128.606Z" fill="#FF9254"/>
<path d="M117.636 4.96113C118.459 4.95193 119.085 4.31683 119.095 3.48844C119.095 2.81652 119.095 2.14461 119.095 1.48189C119.095 1.0677 118.936 0.690322 118.655 0.414192C118.365 0.138062 117.991 -0.018412 117.608 -3.37372e-06C116.784 -3.37372e-06 116.158 0.635096 116.148 1.47269V3.47924C116.148 3.89343 116.307 4.27081 116.597 4.54694C116.869 4.81386 117.233 4.95193 117.636 4.95193V4.96113Z" fill="#FF9254"/>
</g>
<defs>
<clipPath id="clip0_347_4801">
<rect width="174" height="45" fill="white"/>
</clipPath>
</defs>
</svg>
