<svg width="157" height="37" viewBox="0 0 157 37" fill="none" xmlns="http://www.w3.org/2000/svg">
<path d="M41.85 27V9.5H47.225C50.3083 9.5 52.575 10.2833 54.025 11.85C55.4917 13.4167 56.225 15.5667 56.225 18.3C56.225 20.9833 55.4917 23.1083 54.025 24.675C52.575 26.225 50.3083 27 47.225 27H41.85ZM43.95 25.25H47.175C48.875 25.25 50.225 24.975 51.225 24.425C52.2417 23.8583 52.9667 23.0583 53.4 22.025C53.8333 20.975 54.05 19.7333 54.05 18.3C54.05 16.8333 53.8333 15.575 53.4 14.525C52.9667 13.475 52.2417 12.6667 51.225 12.1C50.225 11.5333 48.875 11.25 47.175 11.25H43.95V25.25ZM59.1322 27V14.6H61.0322L61.2072 16.975C61.5906 16.1583 62.1739 15.5083 62.9572 15.025C63.7406 14.5417 64.7072 14.3 65.8572 14.3V16.5H65.2822C64.5489 16.5 63.8739 16.6333 63.2572 16.9C62.6406 17.15 62.1489 17.5833 61.7822 18.2C61.4156 18.8167 61.2322 19.6667 61.2322 20.75V27H59.1322ZM72.3393 27.3C71.3059 27.3 70.4476 27.125 69.7643 26.775C69.0809 26.425 68.5726 25.9583 68.2393 25.375C67.9059 24.7917 67.7393 24.1583 67.7393 23.475C67.7393 22.2083 68.2226 21.2333 69.1893 20.55C70.1559 19.8667 71.4726 19.525 73.1393 19.525H76.4893V19.375C76.4893 18.2917 76.2059 17.475 75.6393 16.925C75.0726 16.3583 74.3143 16.075 73.3643 16.075C72.5476 16.075 71.8393 16.2833 71.2393 16.7C70.6559 17.1 70.2893 17.6917 70.1393 18.475H67.9893C68.0726 17.575 68.3726 16.8167 68.8893 16.2C69.4226 15.5833 70.0809 15.1167 70.8643 14.8C71.6476 14.4667 72.4809 14.3 73.3643 14.3C75.0976 14.3 76.3976 14.7667 77.2643 15.7C78.1476 16.6167 78.5893 17.8417 78.5893 19.375V27H76.7143L76.5893 24.775C76.2393 25.475 75.7226 26.075 75.0393 26.575C74.3726 27.0583 73.4726 27.3 72.3393 27.3ZM72.6643 25.525C73.4643 25.525 74.1476 25.3167 74.7143 24.9C75.2976 24.4833 75.7393 23.9417 76.0393 23.275C76.3393 22.6083 76.4893 21.9083 76.4893 21.175V21.15H73.3143C72.0809 21.15 71.2059 21.3667 70.6893 21.8C70.1893 22.2167 69.9393 22.7417 69.9393 23.375C69.9393 24.025 70.1726 24.55 70.6393 24.95C71.1226 25.3333 71.7976 25.525 72.6643 25.525ZM82.4146 27V16.375H80.5396V14.6H82.4146V12.45C82.4146 11.25 82.7146 10.375 83.3146 9.825C83.9146 9.275 84.7896 9 85.9396 9H87.1896V10.8H86.2646C85.6313 10.8 85.1813 10.9333 84.9146 11.2C84.648 11.45 84.5146 11.8833 84.5146 12.5V14.6H87.5646V16.375H84.5146V27H82.4146ZM94.9648 27C93.8315 27 92.9398 26.725 92.2898 26.175C91.6398 25.625 91.3148 24.6333 91.3148 23.2V16.375H89.1648V14.6H91.3148L91.5898 11.625H93.4148V14.6H97.0648V16.375H93.4148V23.2C93.4148 23.9833 93.5732 24.5167 93.8898 24.8C94.2065 25.0667 94.7648 25.2 95.5648 25.2H96.8648V27H94.9648ZM104.783 27L98.3828 9.5H101.808L106.758 23.725L111.733 9.5H115.108L108.708 27H104.783ZM118.838 12.675C118.255 12.675 117.772 12.5 117.388 12.15C117.022 11.8 116.838 11.3583 116.838 10.825C116.838 10.2917 117.022 9.85833 117.388 9.525C117.772 9.175 118.255 9 118.838 9C119.422 9 119.897 9.175 120.263 9.525C120.647 9.85833 120.838 10.2917 120.838 10.825C120.838 11.3583 120.647 11.8 120.263 12.15C119.897 12.5 119.422 12.675 118.838 12.675ZM117.238 27V14.6H120.438V27H117.238ZM129.803 27.3C128.553 27.3 127.445 27.0333 126.478 26.5C125.512 25.9667 124.753 25.2167 124.203 24.25C123.653 23.2833 123.378 22.1667 123.378 20.9C123.378 19.6167 123.645 18.475 124.178 17.475C124.728 16.475 125.478 15.7 126.428 15.15C127.395 14.5833 128.528 14.3 129.828 14.3C131.045 14.3 132.12 14.5667 133.053 15.1C133.987 15.6333 134.712 16.3667 135.228 17.3C135.762 18.2167 136.028 19.2417 136.028 20.375C136.028 20.5583 136.02 20.75 136.003 20.95C136.003 21.15 135.995 21.3583 135.978 21.575H126.553C126.62 22.5417 126.953 23.3 127.553 23.85C128.17 24.4 128.912 24.675 129.778 24.675C130.428 24.675 130.97 24.5333 131.403 24.25C131.853 23.95 132.187 23.5667 132.403 23.1H135.653C135.42 23.8833 135.028 24.6 134.478 25.25C133.945 25.8833 133.278 26.3833 132.478 26.75C131.695 27.1167 130.803 27.3 129.803 27.3ZM129.828 16.9C129.045 16.9 128.353 17.125 127.753 17.575C127.153 18.0083 126.77 18.675 126.603 19.575H132.778C132.728 18.7583 132.428 18.1083 131.878 17.625C131.328 17.1417 130.645 16.9 129.828 16.9ZM140.656 27L137.031 14.6H140.206L142.356 23.525L144.856 14.6H148.406L150.906 23.525L153.081 14.6H156.256L152.606 27H149.281L146.631 17.725L143.981 27H140.656Z" fill="#242A48"/>
<path d="M22.844 20.6781C22.844 24.9524 22.844 29.2356 22.844 33.5099C22.844 34.9844 22.2447 36.0903 20.8874 36.6959C20.4644 36.889 19.962 36.9855 19.4949 36.9855C14.1188 37.0031 8.75157 37.0031 3.37548 36.9943C1.41894 36.9943 0 35.5549 0 33.6064C0 24.9963 0 16.3862 0 7.76728C0 5.79248 1.41894 4.37062 3.40192 4.36184C8.71632 4.36184 14.0395 4.3794 19.3539 4.35307C21.3105 4.34429 22.8704 5.7837 22.8528 7.83749C22.8087 12.1118 22.844 16.395 22.844 20.6693V20.6781ZM11.4484 7.19678C10.5142 7.19678 9.58002 7.19678 8.64581 7.19678C7.3767 7.19678 6.55707 8.01303 6.55707 9.2769C6.55707 11.1288 6.55707 12.9808 6.55707 14.8327C6.55707 16.1053 7.40314 16.9479 8.67225 16.9479C10.5142 16.9479 12.3562 16.9479 14.1982 16.9479C15.4585 16.9479 16.3222 16.079 16.3222 14.8239C16.3222 12.972 16.3222 11.12 16.3222 9.26813C16.3222 8.04814 15.4673 7.20556 14.251 7.19678C13.3168 7.19678 12.3826 7.19678 11.4484 7.19678ZM11.422 19.8267C13.8016 19.8267 16.1723 19.8267 18.5519 19.8267C18.7282 19.8267 18.9133 19.8267 19.0807 19.7741C19.4156 19.6863 19.5743 19.4405 19.5654 19.0982C19.5566 18.7735 19.3804 18.5541 19.0631 18.4751C18.878 18.4312 18.6841 18.4224 18.4902 18.4224C15.2646 18.4224 12.0301 18.4224 8.80445 18.4224C7.33264 18.4224 5.86082 18.4224 4.39782 18.4224C3.6575 18.4224 3.29616 18.6506 3.28735 19.1158C3.27853 19.5897 3.63988 19.8267 4.37138 19.8267C4.4507 19.8267 4.53883 19.8267 4.61815 19.8267C6.88316 19.8267 9.14817 19.8267 11.422 19.8267ZM11.4572 32.0705C9.06885 32.0705 6.68045 32.0705 4.29206 32.0705C4.16867 32.0705 4.04529 32.0705 3.9219 32.0793C3.56056 32.1319 3.28735 32.4391 3.29616 32.7814C3.30497 33.1149 3.55175 33.387 3.9219 33.4309C4.09817 33.4572 4.27443 33.4572 4.45951 33.4572C9.11292 33.4572 13.7751 33.4572 18.4285 33.4572C18.6224 33.4572 18.8163 33.4572 19.0014 33.4309C19.398 33.3695 19.6183 33.0535 19.5654 32.6585C19.5126 32.2724 19.2305 32.0705 18.7106 32.0705C16.2957 32.0705 13.8721 32.0705 11.4572 32.0705ZM11.4572 23.004C8.98953 23.004 6.513 23.004 4.04529 23.004C3.587 23.004 3.27853 23.2936 3.28735 23.6886C3.29616 24.066 3.60462 24.338 4.02766 24.3644C4.12461 24.3644 4.22155 24.3644 4.3185 24.3644C9.06885 24.3644 13.8192 24.3644 18.5695 24.3644C18.7106 24.3644 18.8428 24.3732 18.9838 24.3556C19.4068 24.2942 19.6536 23.9343 19.5654 23.5218C19.4949 23.1795 19.2305 23.004 18.7458 23.004C16.3134 23.004 13.8809 23.004 11.4572 23.004ZM11.4572 27.5416C9.04241 27.5416 6.62757 27.5416 4.20393 27.5416C3.63106 27.5416 3.30497 27.7874 3.29616 28.2087C3.28735 28.6475 3.62225 28.902 4.22155 28.902C4.26562 28.902 4.30087 28.902 4.34494 28.902C9.08648 28.902 13.8192 28.902 18.5607 28.902C18.7017 28.902 18.8339 28.902 18.975 28.902C19.3539 28.8581 19.5919 28.5773 19.5743 28.1999C19.5566 27.7786 19.2746 27.5504 18.7546 27.5504C16.3222 27.5504 13.8897 27.5504 11.4661 27.5504L11.4572 27.5416Z" fill="#FF9254"/>
<path d="M8.71399 2.79842C8.81206 1.07267 10.4347 -0.234722 12.1108 0.0354719C15.4184 0.567144 18.735 1.12496 22.0426 1.67407C24.325 2.04885 26.6163 2.4062 28.8897 2.81585C30.8957 3.17321 31.8407 4.58519 31.4841 6.5637C30.8065 10.3813 30.1557 14.1989 29.496 18.0164C28.8719 21.6335 28.2389 25.2507 27.6059 28.8678C27.4008 30.0444 27.2136 31.2298 26.9907 32.4064C26.7143 33.9056 25.2611 34.9863 23.799 34.8033C23.7187 34.7946 23.6385 34.7684 23.585 34.7597C23.585 34.1235 23.585 33.5221 23.585 32.912C23.6207 27.3948 23.6652 21.8776 23.7098 16.3604C23.7276 13.4057 23.7633 10.451 23.7633 7.49631C23.7633 5.29118 22.3368 3.46955 20.1793 2.94659C19.7246 2.83329 19.2432 2.81585 18.7796 2.80714C15.5789 2.79842 12.3872 2.80714 9.18651 2.80714C9.03495 2.80714 8.88339 2.80714 8.70508 2.80714L8.71399 2.79842Z" fill="#242A48"/>
<path d="M7.62677 11.9626C7.62677 11.1341 7.62677 10.2974 7.62677 9.46891C7.62677 8.91112 7.86632 8.71426 8.51789 8.70605C10.4726 8.70605 12.4273 8.70605 14.382 8.70605C14.9953 8.70605 15.2348 8.89472 15.2348 9.41149C15.2348 11.1177 15.2348 12.8156 15.2348 14.5218C15.2348 15.055 15.024 15.2355 14.3916 15.2355C12.4177 15.2355 10.4534 15.2355 8.47956 15.2355C7.84715 15.2355 7.61719 15.0304 7.61719 14.4972C7.61719 13.6523 7.61719 12.8074 7.61719 11.9626H7.62677Z" fill="#FF9254"/>
</svg>
