<svg width="117" height="114" viewBox="0 0 117 114" fill="none" xmlns="http://www.w3.org/2000/svg">
<g clip-path="url(#clip0_291_2472)">
<path d="M105.284 40.4566C105.409 40.717 105.53 40.9745 105.656 41.2349C105.922 41.0339 106.191 40.8407 106.457 40.6397C106.052 41.9621 107.214 44.5813 107.482 45.9883C107.799 47.6748 108.084 49.3688 108.334 51.0676C108.645 53.1657 110.157 57.9924 108.537 59.8108C106.694 61.8769 102.584 59.93 100.459 59.4351C98.4492 58.9697 96.4419 58.4994 94.4317 58.034C93.3349 57.7787 92.2381 57.5234 91.1413 57.2681C90.7763 57.1856 90.4094 57.0953 90.0444 57.0128C88.732 57.0486 88.5932 56.7011 89.626 55.9628C89.4813 55.3747 89.3385 54.7944 89.1938 54.2063C89.2881 54.3226 89.3842 54.4467 89.4785 54.563C88.8906 54.3917 88.2979 54.2175 87.7101 54.0462C87.5245 54.3094 87.3313 54.5744 87.1457 54.8375C87.2104 53.5332 88.8569 52.8039 89.7895 53.8094C90.5153 54.591 90.6165 55.1856 90.3663 56.2197C90.2152 56.8395 89.6595 57.366 89.0396 57.4981C88.8878 57.5313 88.7437 57.5627 88.5918 57.596C87.997 57.73 87.2226 57.5841 86.8234 57.0792C85.3566 55.2039 86.3617 52.8353 88.8446 52.9874C90.9855 53.1171 93.3128 54.0707 95.406 54.5732C97.7743 55.1434 100.145 55.7213 102.513 56.2915C103.564 56.5456 104.717 57.0127 105.791 57.0892C106.482 57.112 106.52 57.2668 105.892 57.5524C105.875 56.8634 105.849 56.1762 105.816 55.4909C105.724 53.4333 105.599 51.3755 105.426 49.3214C105.233 47.0179 104.975 44.7219 104.67 42.4295C104.531 41.3844 104.274 40.5698 105.105 39.8153C105.37 39.5737 105.776 39.523 106.09 39.7126C106.519 39.9722 106.618 40.2103 106.649 40.7032C106.671 41.0261 106.402 41.2647 106.126 41.3613C106.077 41.3775 106.027 41.3938 105.983 41.413C105.483 41.5851 104.948 40.8921 105.281 40.4614L105.284 40.4566Z" fill="white"/>
<path d="M106.624 59.3706C102.234 54.5546 97.0038 51.1927 90.8881 49.0008C89.2543 48.414 89.9664 45.822 91.6244 46.3905C98.1014 48.6167 103.737 52.7444 107.932 58.1336C108.628 59.0291 107.418 60.2461 106.624 59.3706Z" fill="white"/>
<path d="M83.4304 45.3164C80.6541 44.5389 77.8453 43.913 74.9815 43.5304C72.6258 43.2115 70.0508 43.3856 67.803 42.6381C66.7934 42.3039 66.6718 40.6761 67.84 40.4543C70.2353 40.0003 72.9587 40.7128 75.3185 41.2318C78.2297 41.8735 81.0714 42.7498 83.8593 43.7912C84.7992 44.1425 84.4218 45.5935 83.4304 45.3164Z" fill="white"/>
<path d="M60.7503 41.166C54.4591 40.4616 48.4674 40.8405 42.2592 41.9908C40.6347 42.2921 40.0059 39.8372 41.6423 39.4838C47.9633 38.1252 54.6738 38.3326 60.9614 39.7395C61.756 39.9174 61.5771 41.258 60.7503 41.166Z" fill="white"/>
<path d="M33.9666 44.4013C32.3203 45.5983 30.4233 46.4263 28.6243 47.386C27.2426 48.124 24.2014 49.1883 23.7338 50.756C23.495 51.5533 22.5592 51.9354 21.8379 51.5056C21.7512 51.4531 21.6596 51.3977 21.5728 51.3452C20.9557 50.9718 20.7775 50.2977 20.8969 49.6323C21.2697 47.5792 24.0218 46.8076 25.6498 46.0869C28.0861 44.9991 30.7405 43.714 33.4069 43.3778C33.9203 43.313 34.5217 44.0062 33.9685 44.4091L33.9666 44.4013Z" fill="white"/>
<path d="M13.7787 55.9213C12.0495 57.865 10.3174 59.8135 8.57861 61.7514C7.20658 63.2789 4.57865 65.2387 3.93482 67.1409C3.62419 68.0462 2.69911 68.3888 1.86674 67.9576C1.76259 67.9012 1.66034 67.8525 1.55618 67.7961C0.871364 67.4476 0.659998 66.5887 0.806518 65.9002C1.24912 63.7972 3.91644 62.1642 5.38643 60.8013C7.69809 58.6568 10.0136 56.5278 12.3319 54.394C13.3423 53.4642 14.6656 54.9234 13.7787 55.9213Z" fill="white"/>
</g>
<defs>
<clipPath id="clip0_291_2472">
<rect width="78.1469" height="89.2415" fill="white" transform="matrix(-0.517652 0.855591 0.855591 0.517652 40.4531 0)"/>
</clipPath>
</defs>
</svg>
