<svg width="29" height="33" viewBox="0 0 29 33" fill="none" xmlns="http://www.w3.org/2000/svg">
<path d="M22.1787 7.33334C24.2877 7.33334 25.9683 8.03829 27.2205 9.44819C28.4068 10.9222 29 12.8768 29 15.3121C29 18.7728 28.0114 21.913 26.0342 24.7328C24.0571 27.6167 20.9595 30.3725 16.7415 33L14.5666 30.5967C17.4006 28.3537 19.6084 26.2389 21.1902 24.2522C22.7719 22.2655 23.6287 20.5031 23.7605 18.965L23.3651 18.6767C23.0355 19.2534 22.2117 19.5418 20.8936 19.5418C19.4437 19.5418 18.2244 18.965 17.2358 17.8115C16.2472 16.722 15.7529 15.3121 15.7529 13.5818C15.7529 11.7233 16.3461 10.2172 17.5324 9.06367C18.7187 7.91012 20.2675 7.33334 22.1787 7.33334ZM7.61213 1.94491e-06C9.72111 2.12928e-06 11.4017 0.704955 12.6539 2.11486C13.8402 3.58885 14.4334 5.54349 14.4334 7.97878C14.4334 11.4395 13.4448 14.5797 11.4676 17.3995C9.49044 20.2834 6.39287 23.0391 2.17489 25.6667L-2.9635e-06 23.2634C2.83395 21.0204 5.0418 18.9055 6.62354 16.9188C8.20528 14.9322 9.06205 13.1698 9.19386 11.6317L8.79843 11.3433C8.4689 11.9201 7.64508 12.2085 6.32696 12.2085C4.87703 12.2085 3.65777 11.6317 2.66919 10.4782C1.6806 9.38868 1.18631 7.97878 1.18631 6.24844C1.18631 4.38993 1.77946 2.8839 2.96576 1.73034C4.15207 0.57678 5.70086 1.77782e-06 7.61213 1.94491e-06Z" fill="white"/>
</svg>
