<svg width="20" height="17" viewBox="0 0 20 17" fill="none" xmlns="http://www.w3.org/2000/svg">
<path d="M18.5959 1.00804C17.83 1.5483 16.982 1.96151 16.0845 2.23176C15.6028 1.6779 14.9626 1.28533 14.2505 1.10716C13.5385 0.928989 12.7889 0.973807 12.1031 1.23555C11.4173 1.4973 10.8285 1.96334 10.4162 2.57065C10.0039 3.17796 9.78811 3.89724 9.79795 4.6312V5.43101C8.39239 5.46746 6.99962 5.15573 5.7437 4.52358C4.48778 3.89144 3.40769 2.9585 2.59963 1.80786C2.59963 1.80786 -0.599628 9.00618 6.5987 12.2054C4.9515 13.3236 2.98926 13.8842 1 13.8051C8.19833 17.8041 16.9963 13.8051 16.9963 4.60721C16.9955 4.38442 16.9741 4.16219 16.9323 3.94336C17.7486 3.13834 18.3246 2.12195 18.5959 1.00804V1.00804Z" stroke="#FF9254" stroke-width="1.5" stroke-linecap="round" stroke-linejoin="round"/>
</svg>
