<svg width="23" height="17" viewBox="0 0 23 17" fill="none" xmlns="http://www.w3.org/2000/svg">
<path d="M21.6348 3.31824C21.521 2.8636 21.2892 2.44705 20.9629 2.11065C20.6366 1.77425 20.2273 1.52992 19.7763 1.40234C18.1287 1 11.538 1 11.538 1C11.538 1 4.9473 1 3.29963 1.44066C2.84867 1.56824 2.43937 1.81257 2.11306 2.14897C1.78675 2.48537 1.555 2.90192 1.4412 3.35655C1.13966 5.02871 0.992152 6.725 1.00055 8.4241C0.989799 10.136 1.13731 11.8452 1.4412 13.53C1.56666 13.9705 1.8036 14.3712 2.12915 14.6934C2.4547 15.0156 2.85784 15.2484 3.29963 15.3692C4.9473 15.8099 11.538 15.8099 11.538 15.8099C11.538 15.8099 18.1287 15.8099 19.7763 15.3692C20.2273 15.2416 20.6366 14.9973 20.9629 14.6609C21.2892 14.3245 21.521 13.908 21.6348 13.4533C21.934 11.7938 22.0815 10.1104 22.0754 8.4241C22.0862 6.71221 21.9387 5.00298 21.6348 3.31824V3.31824Z" stroke="#FF9254" stroke-width="1.5" stroke-linecap="round" stroke-linejoin="round"/>
<path d="M9.38086 11.5565L14.8891 8.424L9.38086 5.2915V11.5565Z" stroke="#FF9254" stroke-width="1.5" stroke-linecap="round" stroke-linejoin="round"/>
</svg>
